<?xml version="1.0" standalone="no"?>
<!DOCTYPE svg PUBLIC "-//W3C//DTD SVG 20010904//EN"
 "http://www.w3.org/TR/2001/REC-SVG-20010904/DTD/svg10.dtd">
<svg version="1.0" xmlns="http://www.w3.org/2000/svg"
 width="800.000000pt" height="600.000000pt" viewBox="0 0 800.000000 600.000000"
 preserveAspectRatio="xMidYMid meet">

<g transform="translate(0.000000,600.000000) scale(0.100000,-0.100000)"
fill="#000000" stroke="none">
<path d="M2460 3747 l0 -714 351 -177 350 -178 354 179 355 178 0 712 0 713
-354 -177 -353 -176 -352 177 -351 177 0 -714z m365 476 l315 -158 0 -657 c0
-362 -3 -658 -7 -658 -5 1 -147 72 -318 158 l-310 157 -3 658 c-1 361 0 657 3
657 3 0 147 -71 320 -157z m995 -503 l0 -660 -310 -155 c-170 -85 -312 -155
-315 -155 -3 0 -5 296 -5 658 l0 657 308 157 c169 87 310 158 315 158 4 0 7
-297 7 -660z"/>
<path d="M2220 4240 c0 -71 -2 -130 -5 -130 -3 0 -41 18 -85 40 -44 22 -82 40
-85 40 -3 0 -5 -315 -5 -700 0 -693 0 -700 20 -700 20 0 20 7 20 665 0 366 2
665 5 665 2 0 34 -14 70 -32 l65 -32 0 -556 0 -556 338 -127 c185 -70 342
-127 349 -127 10 0 27 29 20 36 -1 2 -151 59 -332 128 l-330 124 -3 656 c-1
447 1 656 8 656 6 0 37 -13 70 -30 58 -29 60 -29 70 -10 10 18 1 24 -90 70
l-100 50 0 -130z"/>
<path d="M4033 4322 c-93 -46 -101 -54 -84 -81 8 -12 20 -9 69 17 33 18 63 32
66 32 3 0 5 -296 4 -657 l-3 -657 -323 -121 c-177 -67 -325 -124 -328 -128 -3
-3 -3 -14 0 -25 6 -18 33 -10 356 112 l350 131 0 555 0 556 65 32 65 32 0
-665 0 -665 25 0 25 0 0 705 0 705 -90 -45 -90 -45 0 130 c0 71 -3 130 -7 129
-5 0 -50 -21 -100 -47z"/>
<path d="M5900 2413 c-93 -35 -72 -167 27 -167 43 0 83 40 83 84 0 52 -65 100
-110 83z m71 -32 c35 -36 37 -61 6 -97 -61 -70 -160 5 -116 87 10 20 41 37 67
38 8 1 27 -12 43 -28z"/>
<path d="M5891 2333 c1 -27 3 -40 6 -30 2 9 9 17 15 17 6 0 17 -8 25 -17 8
-10 12 -13 8 -6 -3 7 0 21 7 32 15 25 -4 51 -38 51 -22 0 -24 -4 -23 -47z m57
15 c3 -13 -3 -18 -22 -18 -20 0 -26 5 -26 21 0 15 5 20 22 17 13 -2 24 -11 26
-20z"/>
<path d="M2030 1980 l0 -240 119 0 c113 0 121 1 149 25 16 13 35 38 42 55 19
45 7 117 -23 148 l-25 25 21 29 c27 37 28 102 2 141 -30 47 -63 57 -180 57
l-105 0 0 -240z m215 184 c24 -10 46 -60 39 -89 -10 -42 -40 -55 -126 -55
l-78 0 0 75 0 75 74 0 c41 0 82 -3 91 -6z m31 -227 c32 -38 32 -90 -1 -122
-22 -23 -32 -25 -110 -25 l-85 0 0 91 0 91 86 -3 c79 -4 87 -6 110 -32z"/>
<path d="M2530 2202 c-19 -10 -48 -36 -65 -56 -28 -36 -30 -44 -33 -138 -5
-127 2 -160 40 -204 42 -47 77 -64 138 -64 57 0 93 15 132 57 40 42 48 74 48
186 0 117 -13 152 -74 201 -48 39 -133 47 -186 18z m141 -47 c53 -28 69 -68
69 -173 0 -63 -5 -102 -15 -122 -49 -96 -181 -96 -230 0 -21 40 -20 200 0 241
32 61 113 86 176 54z"/>
<path d="M2967 2199 c-20 -11 -49 -38 -65 -61 -24 -37 -27 -52 -30 -144 -4
-121 13 -174 73 -220 54 -41 138 -46 197 -11 71 41 88 84 88 216 0 121 -7 146
-57 193 -54 52 -138 63 -206 27z m180 -73 l33 -36 0 -111 0 -111 -39 -39 c-33
-33 -45 -39 -82 -39 -56 0 -106 30 -125 75 -8 20 -14 67 -14 115 0 138 45 195
144 187 42 -4 55 -10 83 -41z"/>
<path d="M3340 1980 l0 -240 25 0 25 0 0 105 0 105 35 0 c33 0 40 -6 113 -105
65 -89 81 -105 105 -105 15 0 27 4 27 10 0 5 -38 58 -85 117 -49 63 -81 111
-76 118 103 136 161 216 161 225 0 5 -12 10 -27 10 -24 -1 -40 -17 -106 -110
-74 -103 -80 -110 -113 -110 l-34 0 0 110 0 110 -25 0 -25 0 0 -240z"/>
<path d="M3800 2198 c-48 -32 -73 -82 -65 -133 11 -76 50 -107 153 -126 76
-14 102 -32 102 -69 0 -38 -23 -50 -93 -50 -39 0 -61 6 -80 20 -32 26 -39 25
-67 -5 l-23 -25 22 -24 c37 -39 72 -48 171 -45 91 4 92 4 126 41 30 33 34 44
34 93 0 46 -4 59 -30 88 -25 29 -44 38 -117 56 -111 27 -138 56 -93 101 29 29
97 27 143 -4 l36 -25 25 20 c35 27 33 43 -11 76 -32 24 -47 28 -117 31 -72 3
-85 1 -116 -20z"/>
<path d="M4124 2206 c-3 -8 -4 -25 -2 -38 3 -21 9 -23 71 -26 l67 -3 0 -199 0
-200 45 0 45 0 0 200 0 200 70 0 70 0 0 40 0 40 -180 0 c-147 0 -182 -3 -186
-14z"/>
<path d="M4640 2209 c-32 -13 -78 -56 -96 -91 -10 -19 -14 -62 -14 -139 0 -97
3 -116 22 -151 31 -55 90 -88 157 -88 62 0 97 16 139 64 38 44 45 77 40 204
-3 90 -5 102 -31 135 -50 66 -144 95 -217 66z m138 -104 c20 -23 22 -37 22
-126 0 -98 -1 -101 -29 -130 -37 -37 -79 -38 -120 -3 -31 26 -31 26 -31 131 0
103 0 105 30 135 27 26 36 30 68 25 22 -4 46 -17 60 -32z"/>
<path d="M5000 1980 l0 -240 45 0 45 0 0 91 0 90 46 -3 47 -3 37 -85 37 -85
47 -3 c27 -2 46 1 46 7 0 6 -19 49 -42 95 l-42 84 32 27 c78 65 60 205 -31
248 -26 13 -63 17 -151 17 l-116 0 0 -240z m241 142 c15 -13 22 -30 22 -52 0
-50 -31 -70 -109 -70 l-64 0 0 70 0 70 64 0 c47 0 70 -5 87 -18z"/>
<path d="M5450 1980 l0 -240 160 0 160 0 0 40 0 40 -115 0 -115 0 0 60 0 59
98 3 97 3 3 38 3 37 -100 0 -101 0 0 60 0 60 115 0 115 0 0 40 0 40 -160 0
-160 0 0 -240z"/>
<path d="M2430 1595 l0 -55 405 0 405 0 0 55 0 55 -405 0 -405 0 0 -55z"/>
</g>
</svg>
